<?xml version="1.0" encoding="utf-8"?>
<!-- Generator: Adobe Illustrator 23.0.3, SVG Export Plug-In . SVG Version: 6.00 Build 0)  -->
<svg version="1.1" id="Icons" xmlns="http://www.w3.org/2000/svg" xmlns:xlink="http://www.w3.org/1999/xlink" x="0px" y="0px"
	 viewBox="0 0 32 32" style="enable-background:new 0 0 32 32;" xml:space="preserve">
<path d="M31.7,20.9c-0.1-0.5-0.7-0.8-1.2-0.7c-0.7,0.2-1.2,0-1.3-0.2c-0.1-0.2,0-0.7,0.5-1.3c0.4-0.4,0.4-1,0-1.4
	c-1-1-2.2-1.7-3.6-2.1c-0.5-0.1-1.1,0.2-1.2,0.7c-0.2,0.7-0.6,1-0.9,1s-0.6-0.4-0.9-1c-0.2-0.5-0.7-0.8-1.2-0.7
	c-1.4,0.4-2.6,1.1-3.6,2.1c-0.4,0.4-0.4,1,0,1.4c0.5,0.5,0.6,1,0.5,1.3c-0.1,0.2-0.6,0.4-1.3,0.2c-0.5-0.1-1.1,0.2-1.2,0.7
	C16.1,21.6,16,22.3,16,23s0.1,1.4,0.3,2.1c0.1,0.5,0.7,0.8,1.2,0.7c0.7-0.2,1.2,0,1.3,0.2c0.1,0.2,0,0.7-0.5,1.3
	c-0.4,0.4-0.4,1,0,1.4c1,1,2.2,1.7,3.6,2.1c0.1,0,0.2,0,0.3,0c0.4,0,0.8-0.3,1-0.7c0.2-0.7,0.6-1,0.9-1s0.6,0.4,0.9,1
	c0.2,0.5,0.7,0.8,1.2,0.7c1.4-0.4,2.6-1.1,3.6-2.1c0.4-0.4,0.4-1,0-1.4c-0.5-0.5-0.6-1-0.5-1.3c0.1-0.2,0.6-0.4,1.3-0.2
	c0.5,0.1,1.1-0.2,1.2-0.7c0.2-0.7,0.3-1.4,0.3-2.1S31.9,21.6,31.7,20.9z M24,27c-2.2,0-4-1.8-4-4s1.8-4,4-4c2.2,0,4,1.8,4,4
	S26.2,27,24,27z"/>
<path d="M14,23c0-1.2,0.2-2.3,0.6-3.3c0-0.1,0-0.1,0-0.2c0,0,0.1-0.1,0.1-0.1c0.5-1.2,1.1-2.2,1.9-3.1c0.1-0.4,0.2-0.7,0.3-1.1
	c0-0.3,0-0.6-0.2-0.8S16.2,14,15.9,14c-1.1,0-2.1-0.4-2.9-1h6c0.6,0,1-0.4,1-1s-0.4-1-1-1h-0.2v-0.2c0-1.8-0.6-3.4-1.6-4.8l-0.7,2.5
	c-0.1,0.4-0.5,0.7-1,0.7c-0.1,0-0.2,0-0.3,0c-0.5-0.2-0.8-0.7-0.7-1.2l1.2-4.1c0-0.3-0.2-0.6-0.5-0.8c-2.6-1.3-5.7-1.3-8.3,0
	C6.5,3.1,6.4,3.5,6.3,3.8l1.2,4.1c0.2,0.5-0.2,1.1-0.7,1.2c-0.1,0-0.2,0-0.3,0c-0.4,0-0.8-0.3-1-0.7L4.9,6c-1,1.4-1.6,3-1.6,4.8V11
	H3c-0.6,0-1,0.4-1,1s0.4,1,1,1h2v1c0,2.2,0.9,4.2,2.4,5.5c-0.2,1.4-1.1,2.6-2.5,3c-2.5,0.7-4.4,2.9-5,5.7c-0.1,0.5,0,0.9,0.3,1.3
	C0.6,29.8,1,30,1.5,30h15.4C15.1,28.2,14,25.7,14,23z"/>
	
</svg>
